<?xml version="1.0" standalone="no"?>
<!DOCTYPE svg PUBLIC "-//W3C//DTD SVG 20010904//EN"
 "http://www.w3.org/TR/2001/REC-SVG-20010904/DTD/svg10.dtd">
<svg version="1.0" xmlns="http://www.w3.org/2000/svg"
 width="1200.000000pt" height="675.000000pt" viewBox="0 0 1200.000000 675.000000"
 preserveAspectRatio="xMidYMid meet">
<metadata>
Created by potrace 1.16, written by Peter Selinger 2001-2019
</metadata>
<g transform="translate(0.000000,675.000000) scale(0.100000,-0.100000)"
fill="#000000" stroke="none">
<path d="M0 3375 l0 -3375 3505 0 c2280 0 3505 3 3505 10 0 17 -51 164 -71
201 -38 76 -110 319 -94 319 8 0 35 -27 35 -35 0 -4 13 -27 30 -52 16 -24 30
-48 30 -52 0 -5 7 -11 15 -15 8 -3 14 -9 13 -13 -6 -20 24 -53 47 -53 14 0 25
-5 25 -10 0 -6 -7 -10 -16 -8 -10 2 -19 -3 -22 -11 -3 -10 1 -12 16 -9 18 5
22 0 28 -35 10 -64 37 -98 47 -59 3 9 5 1 6 -19 0 -20 8 -42 16 -49 8 -7 13
-16 10 -20 -3 -5 -1 -11 5 -15 6 -3 11 4 11 17 1 20 2 20 5 3 11 -54 28 -95
38 -92 6 2 14 32 17 68 l6 64 1 -67 2 -68 1805 0 1805 0 0 1455 c0 890 4 1455
9 1455 6 0 7 -561 4 -1455 l-6 -1455 587 0 586 0 0 829 c0 654 -3 830 -12 834
-10 4 -10 6 0 6 6 1 12 12 12 26 l0 25 -397 -1 c-219 -1 -384 -5 -368 -9 17
-4 -58 -5 -165 -2 -107 2 -199 8 -204 13 -6 5 233 9 562 9 l572 0 0 2510 0
2510 -6000 0 -6000 0 0 -3375z m6198 -989 c63 -18 122 -31 133 -29 10 3 25 0
33 -6 18 -15 204 -48 321 -56 50 -4 106 -8 127 -11 27 -3 38 1 42 13 6 14 9
14 22 -5 16 -23 48 -29 59 -12 4 7 11 8 18 1 7 -5 67 -11 135 -13 l123 -3 6
25 7 25 6 -25 6 -25 156 -5 c86 -3 160 -8 164 -12 4 -5 -65 -8 -154 -8 -143 0
-162 -2 -171 -17 -9 -17 -10 -17 -16 -1 -6 14 -21 15 -128 11 -67 -3 -127 -10
-133 -15 -7 -5 -22 -4 -38 2 -25 9 -26 8 -26 -25 0 -18 -5 -46 -12 -62 -11
-28 -12 -27 -21 25 l-10 54 -36 -6 c-20 -3 -72 -8 -116 -11 -245 -15 -324 -26
-442 -58 l-81 -22 15 -28 c26 -50 8 -66 -49 -42 -14 6 -18 2 -19 -16 0 -17 -4
-13 -12 15 l-12 40 -125 3 c-89 2 -128 7 -135 17 -5 7 -21 15 -35 18 -14 3
-70 17 -125 31 -55 15 -143 31 -195 37 -52 5 -105 13 -117 16 -16 4 -25 1 -29
-10 -6 -14 -8 -15 -18 -2 -16 21 -190 36 -528 45 -153 4 -280 10 -283 13 -3 3
122 8 277 11 156 2 338 11 406 18 123 13 123 13 129 41 3 15 9 28 13 28 5 0 6
-8 4 -17 -9 -38 8 -44 92 -33 112 14 211 34 220 43 4 4 17 7 28 7 12 0 39 7
61 15 22 8 56 14 76 15 38 0 103 23 114 39 12 20 158 2 273 -33z m-842 -256
c10 0 14 -14 14 -50 0 -54 -19 -70 -21 -17 -1 17 -1 36 0 41 1 6 -135 6 -341
2 -189 -4 -413 -8 -498 -9 l-155 -2 -5 -35 c-4 -27 -7 -31 -13 -17 -4 10 -7
30 -7 43 0 17 -6 24 -20 24 -16 0 -20 -7 -20 -35 0 -19 -4 -35 -9 -35 -13 0
-20 63 -9 77 8 10 130 13 527 15 284 2 522 2 529 1 8 -2 20 -3 28 -3z m2224
-721 c14 -8 32 -20 42 -27 9 -8 22 -15 30 -16 7 -1 29 -12 48 -24 19 -12 41
-20 49 -17 8 3 17 1 21 -5 9 -15 310 -26 310 -12 0 6 -6 12 -12 15 -7 2 -10 8
-6 12 4 4 14 2 22 -4 8 -7 19 -10 25 -7 5 3 11 -1 15 -9 3 -8 11 -15 17 -15 7
0 17 -6 23 -14 6 -8 70 -51 141 -96 72 -45 134 -85 140 -91 5 -5 -52 -9 -152
-9 l-161 0 -10 -27 -10 -28 -1 28 -1 27 -170 0 c-169 0 -170 0 -171 -22 l-2
-23 -4 23 c-4 18 -11 22 -45 22 -31 0 -39 -3 -35 -14 4 -10 1 -13 -9 -9 -7 3
-14 9 -14 14 0 5 -12 9 -26 9 -24 0 -25 -2 -20 -47 4 -43 11 -53 67 -105 57
-52 64 -56 75 -40 12 15 13 14 14 -11 0 -35 109 -145 151 -154 32 -6 40 -23
12 -23 -34 0 -63 12 -63 26 0 8 -5 14 -11 14 -5 0 -24 13 -42 30 -40 37 -47
37 -48 3 -1 -25 -2 -24 -11 9 -20 74 -12 73 -365 73 -354 1 -321 -6 -364 78
-30 58 -17 54 31 -8 41 -53 44 -55 91 -55 40 0 49 3 50 18 1 16 2 16 6 0 4
-16 22 -18 200 -18 l195 0 -7 31 c-7 30 -70 98 -104 110 -9 3 -16 12 -16 20 0
7 -18 24 -40 36 -33 18 -132 128 -209 233 -6 8 28 -16 75 -53 84 -65 139 -96
139 -78 0 5 31 9 70 8 68 -2 70 -1 85 28 13 26 15 27 15 8 0 -22 32 -48 44
-36 3 3 6 16 6 27 1 16 4 13 15 -11 10 -24 20 -33 38 -33 28 0 54 24 37 35 -6
3 -8 11 -4 16 6 10 94 -57 94 -72 0 -5 -16 -9 -36 -9 -23 0 -33 -4 -28 -11 3
-6 15 -9 25 -6 10 3 22 1 25 -4 9 -15 110 -11 123 5 9 11 5 15 -21 20 -26 5
-30 9 -18 16 13 9 13 11 0 20 -8 5 -19 8 -25 7 -5 -2 -31 9 -58 25 -26 15 -50
28 -53 28 -3 0 -17 9 -31 20 -14 11 -33 20 -43 20 -9 0 -33 15 -53 33 -19 17
-58 51 -86 75 -51 44 -70 77 -28 50 12 -8 33 -21 47 -29z"/>
<path d="M7795 1270 c3 -5 13 -10 21 -10 8 0 14 -4 14 -9 0 -9 142 -81 160
-81 6 0 10 -4 10 -10 0 -5 18 -13 40 -16 22 -4 43 -11 46 -15 14 -23 24 9 24
77 l0 74 -161 0 c-104 0 -158 -3 -154 -10z"/>
<path d="M8120 1248 c0 -18 3 -56 6 -84 6 -49 7 -50 41 -52 24 -2 40 3 49 15
13 17 13 17 14 1 0 -15 9 -18 53 -18 30 0 57 3 60 6 8 8 -34 46 -83 76 -19 12
-53 37 -76 55 -51 41 -64 41 -64 1z"/>
</g>
</svg>
